<svg xmlns="http://www.w3.org/2000/svg" xmlns:xlink="http://www.w3.org/1999/xlink" version="1.1" x="0px" y="0px" viewBox="0 0 600 750" style="enable-background:new 0 0 600 600;" xml:space="preserve"><g><g><g><path d="M540,560c-5.118,0-10.237-1.952-14.143-5.857l-480-480c-7.811-7.811-7.811-20.474,0-28.284s20.474-7.811,28.284,0     l480,480c7.811,7.811,7.811,20.475,0,28.285C550.237,558.048,545.118,560,540,560z"/></g><g><path d="M60,560c-5.119,0-10.237-1.952-14.142-5.857c-7.811-7.811-7.811-20.475,0-28.285l480-480     c7.811-7.811,20.475-7.811,28.285,0s7.811,20.474,0,28.284l-480,480C70.237,558.048,65.119,560,60,560z"/></g></g></g><text x="0" y="615" fill="#000000" font-size="5px" font-weight="bold" font-family="'Helvetica Neue', Helvetica, Arial-Unicode, Arial, Sans-serif">Created by ibrandify</text><text x="0" y="620" fill="#000000" font-size="5px" font-weight="bold" font-family="'Helvetica Neue', Helvetica, Arial-Unicode, Arial, Sans-serif">from the Noun Project</text></svg>