<svg xmlns="http://www.w3.org/2000/svg" width="13.989" height="12.165" viewBox="0 0 13.989 12.165">
  <path id="Commerces_icon" data-name="Commerces icon" d="M635.984,794.41l-8.106-.694c-.351,0-.744.284-.635.634l1.309,4.874c.149.44.491.444.842.444h6.115a.635.635,0,0,0,.635-.635l.476-3.9A.675.675,0,0,0,635.984,794.41Zm-1.217,5.993H627.9l-2.169-7.927-2.645-.211c-.952.483-.106,1.391-.106,1.391l1.764.039,2.341,8.058h7.639C635.845,800.972,634.767,800.4,634.767,800.4Zm-6.124,1.805a1.111,1.111,0,1,0,1.111,1.111A1.111,1.111,0,0,0,628.644,802.208Zm5.029.02a1.1,1.1,0,1,0,1.1,1.1A1.1,1.1,0,0,0,633.673,802.228Z" transform="translate(-622.63 -792.265)"/>
</svg>
