<svg xmlns="http://www.w3.org/2000/svg" width="18.248" height="11.853" viewBox="0 0 18.248 11.853">
  <path id="Loisir_icon" data-name="Loisir icon" d="M984.608,794.973a4.557,4.557,0,0,0-1.457,3.2,4.637,4.637,0,0,0,1.618,3.366,6.475,6.475,0,0,0-.161-6.571Zm15.333,0a6.474,6.474,0,0,0-.162,6.572,4.64,4.64,0,0,0,1.619-3.367A4.556,4.556,0,0,0,999.941,794.973Zm-.715-.628a12.59,12.59,0,0,0-13.9,0,7.425,7.425,0,0,1,.181,7.8,12.656,12.656,0,0,0,13.541,0,7.424,7.424,0,0,1,.181-7.8Zm-3.272,3.962h-1.325v1.24h-.621v-1.24h-1.423v1.24h-.621v-1.24h-1.423v1.24h-.621v-1.24H988.6v-.648h1.324v-1.382h.621v1.382h1.423v-1.382h.621v1.382h1.423v-1.382h.621v1.382h1.325Z" transform="translate(-983.151 -792.252)" fill="#253150"/>
</svg>
