<svg xmlns="http://www.w3.org/2000/svg" width="19.519" height="11.337" viewBox="0 0 19.519 11.337">
  <path id="Écoles_icon" data-name="Écoles icon" d="M768.714,793l-10.179,4.57,2.313.965V800.7a.635.635,0,0,0,.012,1.164l-.475,1.322h1.388l-.47-1.313a.624.624,0,0,0,.008-1.191v-1.948l2.776,1.156.026-.026,0,0-.029.022v3.239s1.041,1.215,4.164,1.215a7.692,7.692,0,0,0,4.627-1.215v-3.239l-.021-.021,0-.005.019.026,5.176-2.256Zm-.289,10.642c-2.044,0-3.7-.414-3.7-.926s1.657-.924,3.7-.924,3.7.414,3.7.924S770.469,803.644,768.424,803.644Z" transform="translate(-758.534 -793.002)" fill="#253150"/>
</svg>
