<svg xmlns="http://www.w3.org/2000/svg" width="16.486" height="13.457" viewBox="0 0 16.486 13.457">
  <path id="Services_icon" data-name="Services icon" d="M9.59,13.457H7.529V9.333H9.59v4.123Zm-7.218,0a1.007,1.007,0,0,1-.759-.28,1.124,1.124,0,0,1-.272-.749V7.271A1.044,1.044,0,0,1,2.374,6.24H14.779a.978.978,0,0,1,.748.276,1.069,1.069,0,0,1,.251.723v5.1c0,.011-.133,1.085-1.117,1.085H10.621l.01-4.06a1.108,1.108,0,0,0-1.1-1.095h-2a.99.99,0,0,0-.755.284,1.2,1.2,0,0,0-.278.81L6.5,13.446H6.432C5.534,13.453,3.791,13.455,2.373,13.456Zm11.343-3.092V11.4h1.031V10.364Zm-2.062,0V11.4h1.031V10.364Zm-7.218,0V11.4H5.467V10.364Zm-2.062,0V11.4H3.4V10.364ZM13.715,8.3V9.333h1.031V8.3Zm-2.062,0V9.333h1.031V8.3Zm-7.218,0V9.333H5.467V8.3Zm-2.062,0V9.333H3.4V8.3ZM16.486,5.209H0L8.656,0l2.936,2.036,3.167-.021-.036,1.067,1.762,2.125Z" fill="#253150"/>
</svg>
