<svg xmlns="http://www.w3.org/2000/svg" width="10.311" height="12.638" viewBox="0 0 10.311 12.638">
  <path id="Transports_icon" data-name="Transports icon" d="M1203.941,798.544s0-2.965-1.2-3h-5.147c-1.2.034-1.2.936-1.2.936v1.074l-1.3.7v5.3l.556,0a.856.856,0,0,0-.022.187v.039a.853.853,0,0,0,1.705,0v-.039H1203v.039a.852.852,0,1,0,1.7,0v-.039a.841.841,0,0,0-.021-.187l.556,0V799.29l-1.3-1.734Zm-7.471,2.618a.736.736,0,1,1,.735-.736A.735.735,0,0,1,1196.47,801.161Zm3.694-2.65-3.332-.02.033-1.992s-.022-.482.69-.46h5.218c.712-.022.69.46.69.46l.033,1.992Zm4.429,1.914a.736.736,0,1,1-.736-.736A.736.736,0,0,1,1204.593,800.426ZM1203.249,792h-6.186c-1.087-.033-2.062,2.062-2.062,2.062l.049,4.659.981.5s-.012-1.7-.012-2.9a1.367,1.367,0,0,1,1.354-1.22h5.566a1.367,1.367,0,0,1,1.354,1.22,7.294,7.294,0,0,1-1.043,2.9l2.062,1.031v-6.186S1204.335,791.967,1203.249,792Z" transform="translate(-1195 -792)" fill="#253150"/>
</svg>
